<mxfile host="app.diagrams.net" agent="Mozilla/5.0 (Windows NT 10.0; Win64; x64; rv:138.0) Gecko/20100101 Firefox/138.0" version="27.0.6">
  <diagram name="Page-1" id="H8WjsVbNTXbXu_IWoDr0">
    <mxGraphModel dx="1141" dy="1797" grid="1" gridSize="10" guides="1" tooltips="1" connect="1" arrows="1" fold="1" page="1" pageScale="1" pageWidth="850" pageHeight="1100" math="0" shadow="0">
      <root>
        <mxCell id="0" />
        <mxCell id="1" parent="0" />
        <mxCell id="2myHmQKuO1r7phrDSf7x-1" value="" style="rounded=1;whiteSpace=wrap;html=1;" parent="1" vertex="1">
          <mxGeometry x="143.75" y="-120" width="632.5" height="1700" as="geometry" />
        </mxCell>
        <mxCell id="V_LoAU3kPVqiyDulKnPD-106" value="" style="edgeStyle=orthogonalEdgeStyle;rounded=0;orthogonalLoop=1;jettySize=auto;html=1;" parent="1" source="V_LoAU3kPVqiyDulKnPD-105" target="V_LoAU3kPVqiyDulKnPD-20" edge="1">
          <mxGeometry relative="1" as="geometry" />
        </mxCell>
        <mxCell id="V_LoAU3kPVqiyDulKnPD-105" value="&lt;div style=&quot;padding-left: 4px;&quot; align=&quot;left&quot;&gt;&lt;b style=&quot;color: rgb(255, 255, 255);&quot;&gt;&lt;font style=&quot;font-size: 13px;&quot;&gt;Worker&lt;/font&gt;&lt;/b&gt;&lt;/div&gt;" style="rounded=1;whiteSpace=wrap;html=1;align=left;fillColor=#009999;strokeWidth=2;" parent="1" vertex="1">
          <mxGeometry x="210" y="1170" width="100" height="80" as="geometry" />
        </mxCell>
        <mxCell id="V_LoAU3kPVqiyDulKnPD-102" value="" style="rounded=0;whiteSpace=wrap;html=1;fillColor=#FFCE9F;strokeColor=#FFCE9F;fillStyle=dashed;strokeWidth=2;" parent="1" vertex="1">
          <mxGeometry x="230" y="670" width="350" height="410" as="geometry" />
        </mxCell>
        <mxCell id="V_LoAU3kPVqiyDulKnPD-103" value="" style="rounded=0;whiteSpace=wrap;html=1;" parent="1" vertex="1">
          <mxGeometry x="370" y="890" width="180" height="30" as="geometry" />
        </mxCell>
        <mxCell id="e2nXjTbByPsuULgPPmAs-1" value="resolve dependancy stack" style="rounded=1;whiteSpace=wrap;html=1;" parent="1" vertex="1">
          <mxGeometry x="200" y="110" width="120" height="30" as="geometry" />
        </mxCell>
        <mxCell id="e2nXjTbByPsuULgPPmAs-24" style="edgeStyle=orthogonalEdgeStyle;rounded=0;orthogonalLoop=1;jettySize=auto;html=1;entryX=0.5;entryY=0;entryDx=0;entryDy=0;exitX=0.5;exitY=1;exitDx=0;exitDy=0;" parent="1" source="e2nXjTbByPsuULgPPmAs-1" target="e2nXjTbByPsuULgPPmAs-10" edge="1">
          <mxGeometry relative="1" as="geometry">
            <mxPoint x="260" y="200" as="sourcePoint" />
          </mxGeometry>
        </mxCell>
        <mxCell id="e2nXjTbByPsuULgPPmAs-18" style="edgeStyle=orthogonalEdgeStyle;rounded=0;orthogonalLoop=1;jettySize=auto;html=1;entryX=0.5;entryY=0;entryDx=0;entryDy=0;" parent="1" source="e2nXjTbByPsuULgPPmAs-10" target="e2nXjTbByPsuULgPPmAs-25" edge="1">
          <mxGeometry relative="1" as="geometry">
            <mxPoint x="360" y="210" as="targetPoint" />
          </mxGeometry>
        </mxCell>
        <mxCell id="e2nXjTbByPsuULgPPmAs-19" value="False" style="edgeLabel;html=1;align=center;verticalAlign=middle;resizable=0;points=[];" parent="e2nXjTbByPsuULgPPmAs-18" vertex="1" connectable="0">
          <mxGeometry x="-0.2709" y="3" relative="1" as="geometry">
            <mxPoint x="-57" y="-11" as="offset" />
          </mxGeometry>
        </mxCell>
        <mxCell id="V_LoAU3kPVqiyDulKnPD-4" style="edgeStyle=orthogonalEdgeStyle;rounded=0;orthogonalLoop=1;jettySize=auto;html=1;entryX=0.5;entryY=0;entryDx=0;entryDy=0;" parent="1" source="e2nXjTbByPsuULgPPmAs-10" target="V_LoAU3kPVqiyDulKnPD-2" edge="1">
          <mxGeometry relative="1" as="geometry" />
        </mxCell>
        <mxCell id="V_LoAU3kPVqiyDulKnPD-5" value="True" style="edgeLabel;html=1;align=center;verticalAlign=middle;resizable=0;points=[];" parent="V_LoAU3kPVqiyDulKnPD-4" vertex="1" connectable="0">
          <mxGeometry x="-0.2172" relative="1" as="geometry">
            <mxPoint x="-20" y="-86" as="offset" />
          </mxGeometry>
        </mxCell>
        <mxCell id="e2nXjTbByPsuULgPPmAs-10" value="&lt;div&gt;&lt;b&gt;&lt;span style=&quot;color: rgb(51, 153, 255);&quot;&gt;&lt;br&gt;&lt;/span&gt;&lt;/b&gt;&lt;/div&gt;&lt;div&gt;&lt;b&gt;&lt;span style=&quot;color: rgb(51, 153, 255);&quot;&gt;refresh &lt;/span&gt;&lt;/b&gt;= True&lt;/div&gt;&lt;div&gt;?&lt;/div&gt;" style="rhombus;whiteSpace=wrap;html=1;rounded=1;" parent="1" vertex="1">
          <mxGeometry x="207.5" y="160" width="105" height="100" as="geometry" />
        </mxCell>
        <mxCell id="V_LoAU3kPVqiyDulKnPD-35" value="" style="edgeStyle=orthogonalEdgeStyle;rounded=0;orthogonalLoop=1;jettySize=auto;html=1;" parent="1" source="e2nXjTbByPsuULgPPmAs-12" target="V_LoAU3kPVqiyDulKnPD-34" edge="1">
          <mxGeometry relative="1" as="geometry" />
        </mxCell>
        <mxCell id="e2nXjTbByPsuULgPPmAs-12" value="&lt;div&gt;identify closest&lt;/div&gt;&lt;div&gt;&lt;span style=&quot;color: rgb(255, 128, 0);&quot;&gt;&lt;b&gt;dependancy&lt;/b&gt;&lt;/span&gt;&lt;/div&gt;" style="rounded=1;whiteSpace=wrap;html=1;" parent="1" vertex="1">
          <mxGeometry x="275.93" y="680" width="140" height="40" as="geometry" />
        </mxCell>
        <mxCell id="e2nXjTbByPsuULgPPmAs-22" style="edgeStyle=orthogonalEdgeStyle;rounded=0;orthogonalLoop=1;jettySize=auto;html=1;entryX=0.5;entryY=0;entryDx=0;entryDy=0;" parent="1" source="e2nXjTbByPsuULgPPmAs-14" target="e2nXjTbByPsuULgPPmAs-21" edge="1">
          <mxGeometry relative="1" as="geometry" />
        </mxCell>
        <mxCell id="e2nXjTbByPsuULgPPmAs-36" value="" style="edgeStyle=orthogonalEdgeStyle;rounded=0;orthogonalLoop=1;jettySize=auto;html=1;endArrow=none;startFill=0;" parent="1" source="e2nXjTbByPsuULgPPmAs-14" target="e2nXjTbByPsuULgPPmAs-35" edge="1">
          <mxGeometry relative="1" as="geometry" />
        </mxCell>
        <mxCell id="e2nXjTbByPsuULgPPmAs-14" value="initialize logger" style="rounded=1;whiteSpace=wrap;html=1;" parent="1" vertex="1">
          <mxGeometry x="200" width="120" height="30" as="geometry" />
        </mxCell>
        <mxCell id="e2nXjTbByPsuULgPPmAs-23" style="edgeStyle=orthogonalEdgeStyle;rounded=0;orthogonalLoop=1;jettySize=auto;html=1;entryX=0.5;entryY=0;entryDx=0;entryDy=0;" parent="1" source="e2nXjTbByPsuULgPPmAs-21" target="e2nXjTbByPsuULgPPmAs-1" edge="1">
          <mxGeometry relative="1" as="geometry" />
        </mxCell>
        <mxCell id="e2nXjTbByPsuULgPPmAs-21" value="instanciate&lt;b&gt; &lt;span style=&quot;color: rgb(0, 153, 153);&quot;&gt;DiskObject&lt;span style=&quot;color: rgb(0, 153, 77);&quot;&gt; &lt;/span&gt;&lt;/span&gt;&lt;/b&gt;class" style="rounded=1;whiteSpace=wrap;html=1;" parent="1" vertex="1">
          <mxGeometry x="200" y="50" width="120" height="40" as="geometry" />
        </mxCell>
        <mxCell id="e2nXjTbByPsuULgPPmAs-30" style="edgeStyle=orthogonalEdgeStyle;rounded=0;orthogonalLoop=1;jettySize=auto;html=1;endArrow=oval;startFill=0;endFill=1;" parent="1" source="e2nXjTbByPsuULgPPmAs-25" edge="1">
          <mxGeometry relative="1" as="geometry">
            <mxPoint x="260" y="280" as="targetPoint" />
          </mxGeometry>
        </mxCell>
        <mxCell id="e2nXjTbByPsuULgPPmAs-33" value="False" style="edgeLabel;html=1;align=center;verticalAlign=middle;resizable=0;points=[];" parent="e2nXjTbByPsuULgPPmAs-30" vertex="1" connectable="0">
          <mxGeometry x="-0.132" relative="1" as="geometry">
            <mxPoint x="57" y="-12" as="offset" />
          </mxGeometry>
        </mxCell>
        <mxCell id="V_LoAU3kPVqiyDulKnPD-53" style="edgeStyle=orthogonalEdgeStyle;rounded=0;orthogonalLoop=1;jettySize=auto;html=1;entryX=0.5;entryY=0;entryDx=0;entryDy=0;" parent="1" source="e2nXjTbByPsuULgPPmAs-25" target="V_LoAU3kPVqiyDulKnPD-32" edge="1">
          <mxGeometry relative="1" as="geometry">
            <mxPoint x="593" y="440" as="targetPoint" />
          </mxGeometry>
        </mxCell>
        <mxCell id="V_LoAU3kPVqiyDulKnPD-60" value="True" style="edgeLabel;html=1;align=center;verticalAlign=middle;resizable=0;points=[];" parent="V_LoAU3kPVqiyDulKnPD-53" vertex="1" connectable="0">
          <mxGeometry x="0.2" y="1" relative="1" as="geometry">
            <mxPoint x="20" y="-4" as="offset" />
          </mxGeometry>
        </mxCell>
        <mxCell id="e2nXjTbByPsuULgPPmAs-25" value="&lt;div&gt;&lt;font&gt;&lt;b&gt;&lt;span style=&quot;color: rgb(0, 153, 153);&quot;&gt;&lt;br&gt;&lt;/span&gt;&lt;/b&gt;&lt;/font&gt;&lt;/div&gt;&lt;div&gt;&lt;font&gt;&lt;b&gt;&lt;span style=&quot;color: rgb(0, 153, 153);&quot;&gt;DiskObject&lt;span style=&quot;color: rgb(0, 153, 77);&quot;&gt;&lt;br&gt;&lt;/span&gt;&lt;/span&gt;&lt;/b&gt;&lt;/font&gt;&lt;/div&gt;&lt;div&gt;&lt;font&gt;loadable&lt;/font&gt;&lt;/div&gt;&lt;div&gt;&lt;font&gt;?&lt;/font&gt;&lt;/div&gt;" style="rhombus;whiteSpace=wrap;html=1;rounded=1;" parent="1" vertex="1">
          <mxGeometry x="419" y="230" width="105" height="100" as="geometry" />
        </mxCell>
        <mxCell id="e2nXjTbByPsuULgPPmAs-34" value="&lt;span style=&quot;color: rgb(153, 0, 153);&quot;&gt;return &lt;/span&gt;&lt;span style=&quot;color: rgb(0, 153, 153);&quot;&gt;&lt;b&gt;None&lt;/b&gt;&lt;/span&gt;" style="rounded=1;whiteSpace=wrap;html=1;fillColor=#D5E8D4;strokeColor=#000000;strokeWidth=2;glass=0;shadow=0;fillStyle=solid;" parent="1" vertex="1">
          <mxGeometry x="400" y="1490" width="120" height="40" as="geometry" />
        </mxCell>
        <mxCell id="e2nXjTbByPsuULgPPmAs-35" value="" style="ellipse;whiteSpace=wrap;html=1;rounded=1;fillColor=#000000;" parent="1" vertex="1">
          <mxGeometry x="247.5" y="-40" width="25" height="25" as="geometry" />
        </mxCell>
        <mxCell id="V_LoAU3kPVqiyDulKnPD-7" style="edgeStyle=orthogonalEdgeStyle;rounded=0;orthogonalLoop=1;jettySize=auto;html=1;entryX=0.5;entryY=0;entryDx=0;entryDy=0;" parent="1" source="V_LoAU3kPVqiyDulKnPD-2" target="e2nXjTbByPsuULgPPmAs-12" edge="1">
          <mxGeometry relative="1" as="geometry">
            <Array as="points">
              <mxPoint x="260" y="660" />
              <mxPoint x="346" y="660" />
            </Array>
          </mxGeometry>
        </mxCell>
        <mxCell id="V_LoAU3kPVqiyDulKnPD-72" value="True" style="edgeLabel;html=1;align=center;verticalAlign=middle;resizable=0;points=[];" parent="V_LoAU3kPVqiyDulKnPD-7" vertex="1" connectable="0">
          <mxGeometry x="-0.8461" relative="1" as="geometry">
            <mxPoint x="20" y="-12" as="offset" />
          </mxGeometry>
        </mxCell>
        <mxCell id="V_LoAU3kPVqiyDulKnPD-51" style="edgeStyle=orthogonalEdgeStyle;rounded=0;orthogonalLoop=1;jettySize=auto;html=1;endArrow=oval;endFill=1;exitX=0;exitY=0.5;exitDx=0;exitDy=0;" parent="1" source="V_LoAU3kPVqiyDulKnPD-2" edge="1">
          <mxGeometry relative="1" as="geometry">
            <mxPoint x="260" y="1140" as="targetPoint" />
            <mxPoint x="196.29999999999995" y="490.02" as="sourcePoint" />
            <Array as="points">
              <mxPoint x="170" y="530" />
              <mxPoint x="170" y="1140" />
            </Array>
          </mxGeometry>
        </mxCell>
        <mxCell id="V_LoAU3kPVqiyDulKnPD-73" value="False" style="edgeLabel;html=1;align=center;verticalAlign=middle;resizable=0;points=[];" parent="V_LoAU3kPVqiyDulKnPD-51" vertex="1" connectable="0">
          <mxGeometry x="-0.922" y="-1" relative="1" as="geometry">
            <mxPoint x="13" y="-23" as="offset" />
          </mxGeometry>
        </mxCell>
        <mxCell id="V_LoAU3kPVqiyDulKnPD-2" value="&lt;div&gt;&lt;b&gt;&lt;br&gt;&lt;/b&gt;&lt;/div&gt;&lt;div&gt;&lt;b&gt;&lt;span style=&quot;color: rgb(51, 153, 255);&quot;&gt;&lt;br&gt;&lt;/span&gt;&lt;/b&gt;&lt;/div&gt;&lt;div&gt;&lt;b&gt;&lt;span style=&quot;color: rgb(51, 153, 255);&quot;&gt;check_requirements&lt;/span&gt;&lt;/b&gt;&lt;/div&gt;&lt;div&gt;= True&lt;/div&gt;&lt;div&gt;?&lt;/div&gt;" style="rhombus;whiteSpace=wrap;html=1;rounded=1;" parent="1" vertex="1">
          <mxGeometry x="190" y="480" width="140" height="100" as="geometry" />
        </mxCell>
        <mxCell id="V_LoAU3kPVqiyDulKnPD-45" style="edgeStyle=orthogonalEdgeStyle;rounded=0;orthogonalLoop=1;jettySize=auto;html=1;entryX=0.5;entryY=0;entryDx=0;entryDy=0;" parent="1" source="V_LoAU3kPVqiyDulKnPD-10" target="V_LoAU3kPVqiyDulKnPD-43" edge="1">
          <mxGeometry relative="1" as="geometry" />
        </mxCell>
        <mxCell id="V_LoAU3kPVqiyDulKnPD-66" value="Then" style="edgeLabel;html=1;align=center;verticalAlign=middle;resizable=0;points=[];" parent="V_LoAU3kPVqiyDulKnPD-45" vertex="1" connectable="0">
          <mxGeometry y="5" relative="1" as="geometry">
            <mxPoint x="-25" as="offset" />
          </mxGeometry>
        </mxCell>
        <mxCell id="V_LoAU3kPVqiyDulKnPD-10" value="dependacy.generate" style="shape=table;startSize=30;container=1;collapsible=0;childLayout=tableLayout;fixedRows=1;rowLines=0;fontStyle=1;strokeColor=default;fontSize=12;rounded=1;fontColor=#FF8000;fillColor=default;" parent="1" vertex="1">
          <mxGeometry x="370" y="860" width="180" height="80" as="geometry" />
        </mxCell>
        <mxCell id="V_LoAU3kPVqiyDulKnPD-11" value="" style="shape=tableRow;horizontal=0;startSize=0;swimlaneHead=0;swimlaneBody=0;top=0;left=0;bottom=0;right=0;collapsible=0;dropTarget=0;fillColor=none;points=[[0,0.5],[1,0.5]];portConstraint=eastwest;strokeColor=inherit;fontSize=16;" parent="V_LoAU3kPVqiyDulKnPD-10" vertex="1">
          <mxGeometry y="30" width="180" height="30" as="geometry" />
        </mxCell>
        <mxCell id="V_LoAU3kPVqiyDulKnPD-12" value="&lt;div align=&quot;center&quot;&gt;&lt;font style=&quot;font-size: 12px;&quot;&gt;&lt;span style=&quot;color: rgb(0, 76, 153);&quot;&gt;&lt;span style=&quot;color: rgb(51, 153, 255);&quot;&gt;&lt;b&gt;refresh &lt;/b&gt;&lt;/span&gt;&lt;/span&gt;= True&lt;/font&gt;&lt;/div&gt;" style="shape=partialRectangle;html=1;whiteSpace=wrap;connectable=0;fillColor=none;top=0;left=0;bottom=0;right=0;overflow=hidden;pointerEvents=1;strokeColor=inherit;fontSize=16;" parent="V_LoAU3kPVqiyDulKnPD-11" vertex="1">
          <mxGeometry width="90" height="30" as="geometry">
            <mxRectangle width="90" height="30" as="alternateBounds" />
          </mxGeometry>
        </mxCell>
        <mxCell id="V_LoAU3kPVqiyDulKnPD-13" value="&lt;font style=&quot;font-size: 12px;&quot;&gt;&lt;span style=&quot;color: rgb(51, 153, 255);&quot;&gt;&lt;b&gt;skip&lt;/b&gt;&lt;/span&gt; = True&lt;/font&gt;" style="shape=partialRectangle;html=1;whiteSpace=wrap;connectable=0;fillColor=none;top=0;left=0;bottom=0;right=0;align=center;spacingLeft=6;overflow=hidden;strokeColor=inherit;fontSize=16;" parent="V_LoAU3kPVqiyDulKnPD-11" vertex="1">
          <mxGeometry x="90" width="90" height="30" as="geometry">
            <mxRectangle width="90" height="30" as="alternateBounds" />
          </mxGeometry>
        </mxCell>
        <mxCell id="V_LoAU3kPVqiyDulKnPD-23" style="edgeStyle=orthogonalEdgeStyle;rounded=0;orthogonalLoop=1;jettySize=auto;html=1;entryX=0.5;entryY=0;entryDx=0;entryDy=0;" parent="1" source="V_LoAU3kPVqiyDulKnPD-20" target="V_LoAU3kPVqiyDulKnPD-22" edge="1">
          <mxGeometry relative="1" as="geometry" />
        </mxCell>
        <mxCell id="V_LoAU3kPVqiyDulKnPD-89" value="True" style="edgeLabel;html=1;align=center;verticalAlign=middle;resizable=0;points=[];" parent="V_LoAU3kPVqiyDulKnPD-23" vertex="1" connectable="0">
          <mxGeometry x="-0.3481" y="-2" relative="1" as="geometry">
            <mxPoint x="-18" y="-10" as="offset" />
          </mxGeometry>
        </mxCell>
        <mxCell id="V_LoAU3kPVqiyDulKnPD-92" style="edgeStyle=orthogonalEdgeStyle;rounded=0;orthogonalLoop=1;jettySize=auto;html=1;endArrow=oval;endFill=1;" parent="1" source="V_LoAU3kPVqiyDulKnPD-20" edge="1">
          <mxGeometry relative="1" as="geometry">
            <mxPoint x="260" y="1470" as="targetPoint" />
            <Array as="points">
              <mxPoint x="350" y="1320" />
              <mxPoint x="350" y="1470" />
            </Array>
          </mxGeometry>
        </mxCell>
        <mxCell id="V_LoAU3kPVqiyDulKnPD-94" value="False" style="edgeLabel;html=1;align=center;verticalAlign=middle;resizable=0;points=[];" parent="V_LoAU3kPVqiyDulKnPD-92" vertex="1" connectable="0">
          <mxGeometry x="-0.8407" y="1" relative="1" as="geometry">
            <mxPoint x="-10" y="-19" as="offset" />
          </mxGeometry>
        </mxCell>
        <mxCell id="V_LoAU3kPVqiyDulKnPD-20" value="&lt;b&gt;&lt;span style=&quot;color: rgb(51, 153, 255);&quot;&gt;save_output&lt;/span&gt;&lt;/b&gt; = True" style="rhombus;whiteSpace=wrap;html=1;rounded=1;" parent="1" vertex="1">
          <mxGeometry x="193.75" y="1270" width="132.5" height="100" as="geometry" />
        </mxCell>
        <mxCell id="V_LoAU3kPVqiyDulKnPD-93" style="edgeStyle=orthogonalEdgeStyle;rounded=0;orthogonalLoop=1;jettySize=auto;html=1;entryX=0.5;entryY=0;entryDx=0;entryDy=0;" parent="1" source="V_LoAU3kPVqiyDulKnPD-22" target="V_LoAU3kPVqiyDulKnPD-91" edge="1">
          <mxGeometry relative="1" as="geometry">
            <Array as="points">
              <mxPoint x="260" y="1480" />
              <mxPoint x="260" y="1480" />
            </Array>
          </mxGeometry>
        </mxCell>
        <mxCell id="V_LoAU3kPVqiyDulKnPD-22" value="&lt;div&gt;&lt;font style=&quot;font-size: 20px; color: rgb(0, 153, 153);&quot;&gt;Saves&lt;/font&gt;&lt;/div&gt;&lt;div&gt;&lt;b&gt;Worker Result&lt;/b&gt;&lt;/div&gt;&lt;div&gt;to&lt;span style=&quot;color: rgb(0, 153, 153);&quot;&gt; &lt;/span&gt;&lt;b&gt;&lt;span style=&quot;color: rgb(0, 153, 153);&quot;&gt;DiskObject&lt;span style=&quot;color: rgb(0, 153, 77);&quot;&gt;&lt;/span&gt;&lt;/span&gt;&lt;/b&gt; &lt;br&gt;&lt;/div&gt;" style="rounded=1;whiteSpace=wrap;html=1;fillColor=#d5e8d4;strokeColor=#000000;strokeWidth=2;glass=0;shadow=0;fillStyle=hatch;" parent="1" vertex="1">
          <mxGeometry x="190" y="1390" width="140" height="60" as="geometry" />
        </mxCell>
        <mxCell id="V_LoAU3kPVqiyDulKnPD-30" style="edgeStyle=orthogonalEdgeStyle;rounded=0;orthogonalLoop=1;jettySize=auto;html=1;entryX=0.5;entryY=0;entryDx=0;entryDy=0;exitX=1;exitY=0.5;exitDx=0;exitDy=0;" parent="1" source="V_LoAU3kPVqiyDulKnPD-32" target="V_LoAU3kPVqiyDulKnPD-95" edge="1">
          <mxGeometry relative="1" as="geometry">
            <mxPoint x="787.5" y="610" as="sourcePoint" />
            <Array as="points">
              <mxPoint x="660" y="400" />
            </Array>
          </mxGeometry>
        </mxCell>
        <mxCell id="V_LoAU3kPVqiyDulKnPD-31" value="False" style="edgeLabel;html=1;align=center;verticalAlign=middle;resizable=0;points=[];" parent="V_LoAU3kPVqiyDulKnPD-30" vertex="1" connectable="0">
          <mxGeometry x="-0.5451" y="-3" relative="1" as="geometry">
            <mxPoint x="-122" y="-132" as="offset" />
          </mxGeometry>
        </mxCell>
        <mxCell id="K5N2aJaCRLMIvGB8ELb--3" style="edgeStyle=orthogonalEdgeStyle;rounded=0;orthogonalLoop=1;jettySize=auto;html=1;exitX=0.5;exitY=1;exitDx=0;exitDy=0;entryX=0.5;entryY=0;entryDx=0;entryDy=0;" edge="1" parent="1" source="V_LoAU3kPVqiyDulKnPD-32" target="V_LoAU3kPVqiyDulKnPD-52">
          <mxGeometry relative="1" as="geometry" />
        </mxCell>
        <mxCell id="K5N2aJaCRLMIvGB8ELb--4" value="True" style="edgeLabel;html=1;align=center;verticalAlign=middle;resizable=0;points=[];" vertex="1" connectable="0" parent="K5N2aJaCRLMIvGB8ELb--3">
          <mxGeometry x="-0.2394" y="4" relative="1" as="geometry">
            <mxPoint x="12" y="-9" as="offset" />
          </mxGeometry>
        </mxCell>
        <mxCell id="V_LoAU3kPVqiyDulKnPD-32" value="&lt;div&gt;&lt;b&gt;&lt;span style=&quot;color: rgb(51, 153, 255);&quot;&gt;&lt;br&gt;&lt;/span&gt;&lt;/b&gt;&lt;/div&gt;&lt;div&gt;&lt;b&gt;&lt;span style=&quot;color: rgb(51, 153, 255);&quot;&gt;skip &lt;/span&gt;&lt;/b&gt;= True&lt;/div&gt;&lt;div&gt;?&lt;/div&gt;" style="rhombus;whiteSpace=wrap;html=1;rounded=1;" parent="1" vertex="1">
          <mxGeometry x="419" y="350" width="105" height="100" as="geometry" />
        </mxCell>
        <mxCell id="V_LoAU3kPVqiyDulKnPD-37" style="edgeStyle=orthogonalEdgeStyle;rounded=0;orthogonalLoop=1;jettySize=auto;html=1;entryX=0;entryY=0.5;entryDx=0;entryDy=0;" parent="1" source="V_LoAU3kPVqiyDulKnPD-34" target="V_LoAU3kPVqiyDulKnPD-11" edge="1">
          <mxGeometry relative="1" as="geometry">
            <mxPoint x="315.93" y="935" as="targetPoint" />
            <Array as="points">
              <mxPoint x="346" y="905" />
            </Array>
          </mxGeometry>
        </mxCell>
        <mxCell id="V_LoAU3kPVqiyDulKnPD-40" value="True" style="edgeLabel;html=1;align=center;verticalAlign=middle;resizable=0;points=[];" parent="V_LoAU3kPVqiyDulKnPD-37" vertex="1" connectable="0">
          <mxGeometry x="-0.6748" y="1" relative="1" as="geometry">
            <mxPoint x="-31" y="-12" as="offset" />
          </mxGeometry>
        </mxCell>
        <mxCell id="V_LoAU3kPVqiyDulKnPD-39" style="edgeStyle=orthogonalEdgeStyle;rounded=0;orthogonalLoop=1;jettySize=auto;html=1;entryX=1;entryY=0.5;entryDx=0;entryDy=0;" parent="1" source="V_LoAU3kPVqiyDulKnPD-34" target="V_LoAU3kPVqiyDulKnPD-11" edge="1">
          <mxGeometry relative="1" as="geometry">
            <mxPoint x="565.9300000000001" y="930" as="targetPoint" />
            <Array as="points">
              <mxPoint x="570" y="795" />
              <mxPoint x="570" y="905" />
            </Array>
          </mxGeometry>
        </mxCell>
        <mxCell id="V_LoAU3kPVqiyDulKnPD-41" value="False" style="edgeLabel;html=1;align=center;verticalAlign=middle;resizable=0;points=[];" parent="V_LoAU3kPVqiyDulKnPD-39" vertex="1" connectable="0">
          <mxGeometry x="-0.9011" y="-2" relative="1" as="geometry">
            <mxPoint x="-3" y="-13" as="offset" />
          </mxGeometry>
        </mxCell>
        <mxCell id="V_LoAU3kPVqiyDulKnPD-34" value="&lt;div&gt;&lt;b&gt;&lt;span style=&quot;color: rgb(255, 128, 0);&quot;&gt;&lt;br&gt;&lt;/span&gt;&lt;/b&gt;&lt;/div&gt;&lt;div&gt;&lt;b&gt;&lt;span style=&quot;color: rgb(255, 128, 0);&quot;&gt;&lt;br&gt;&lt;/span&gt;&lt;/b&gt;&lt;/div&gt;&lt;div&gt;&lt;b&gt;&lt;span style=&quot;color: rgb(255, 128, 0);&quot;&gt;dependency&lt;/span&gt;&lt;/b&gt;&lt;/div&gt;&lt;div&gt;is in&lt;/div&gt;&lt;div&gt;&lt;span style=&quot;color: rgb(51, 153, 255);&quot;&gt;&lt;b&gt;refresh_requirements&lt;/b&gt;&lt;/span&gt;&lt;/div&gt;&lt;div&gt;?&lt;/div&gt;&lt;div&gt;&lt;span style=&quot;color: rgb(51, 153, 255);&quot;&gt;&lt;b&gt;&lt;br&gt;&lt;/b&gt;&lt;/span&gt;&lt;/div&gt;&lt;div&gt;&lt;span style=&quot;color: rgb(51, 153, 255);&quot;&gt;&lt;b&gt;&lt;br&gt;&lt;/b&gt;&lt;/span&gt;&lt;/div&gt;" style="rhombus;whiteSpace=wrap;html=1;rounded=1;" parent="1" vertex="1">
          <mxGeometry x="254.06" y="740" width="183.75" height="110" as="geometry" />
        </mxCell>
        <mxCell id="V_LoAU3kPVqiyDulKnPD-47" style="edgeStyle=orthogonalEdgeStyle;rounded=0;orthogonalLoop=1;jettySize=auto;html=1;entryX=0;entryY=0.5;entryDx=0;entryDy=0;exitX=0;exitY=0.5;exitDx=0;exitDy=0;" parent="1" source="V_LoAU3kPVqiyDulKnPD-43" target="e2nXjTbByPsuULgPPmAs-12" edge="1">
          <mxGeometry relative="1" as="geometry">
            <mxPoint x="280" y="970" as="sourcePoint" />
            <Array as="points">
              <mxPoint x="240" y="1025" />
              <mxPoint x="240" y="700" />
            </Array>
          </mxGeometry>
        </mxCell>
        <mxCell id="V_LoAU3kPVqiyDulKnPD-48" value="False" style="edgeLabel;html=1;align=center;verticalAlign=middle;resizable=0;points=[];" parent="V_LoAU3kPVqiyDulKnPD-47" vertex="1" connectable="0">
          <mxGeometry x="-0.8718" relative="1" as="geometry">
            <mxPoint x="27" y="-15" as="offset" />
          </mxGeometry>
        </mxCell>
        <mxCell id="V_LoAU3kPVqiyDulKnPD-49" style="edgeStyle=orthogonalEdgeStyle;rounded=0;orthogonalLoop=1;jettySize=auto;html=1;exitX=0.5;exitY=1;exitDx=0;exitDy=0;entryX=0.5;entryY=0;entryDx=0;entryDy=0;" parent="1" source="V_LoAU3kPVqiyDulKnPD-43" target="V_LoAU3kPVqiyDulKnPD-83" edge="1">
          <mxGeometry relative="1" as="geometry">
            <mxPoint x="524.6800000000001" y="1070" as="sourcePoint" />
            <mxPoint x="460" y="1130" as="targetPoint" />
            <Array as="points" />
          </mxGeometry>
        </mxCell>
        <mxCell id="V_LoAU3kPVqiyDulKnPD-50" value="True" style="edgeLabel;html=1;align=center;verticalAlign=middle;resizable=0;points=[];" parent="V_LoAU3kPVqiyDulKnPD-49" vertex="1" connectable="0">
          <mxGeometry x="-0.2653" y="-2" relative="1" as="geometry">
            <mxPoint x="25" y="-66" as="offset" />
          </mxGeometry>
        </mxCell>
        <mxCell id="V_LoAU3kPVqiyDulKnPD-87" value="&lt;div&gt;True&lt;/div&gt;" style="edgeLabel;html=1;align=center;verticalAlign=middle;resizable=0;points=[];" parent="V_LoAU3kPVqiyDulKnPD-49" vertex="1" connectable="0">
          <mxGeometry x="-0.4666" y="2" relative="1" as="geometry">
            <mxPoint x="21" y="-5" as="offset" />
          </mxGeometry>
        </mxCell>
        <mxCell id="V_LoAU3kPVqiyDulKnPD-43" value="&lt;div&gt;no more&lt;/div&gt;&lt;div&gt;&lt;span style=&quot;color: rgb(255, 128, 0);&quot;&gt;&lt;b&gt;dependancies&lt;/b&gt;&lt;/span&gt;&lt;/div&gt;&lt;div&gt;?&lt;/div&gt;" style="rhombus;whiteSpace=wrap;html=1;rounded=1;" parent="1" vertex="1">
          <mxGeometry x="411.25" y="980" width="97.5" height="90" as="geometry" />
        </mxCell>
        <mxCell id="V_LoAU3kPVqiyDulKnPD-70" style="edgeStyle=orthogonalEdgeStyle;rounded=0;orthogonalLoop=1;jettySize=auto;html=1;entryX=0.5;entryY=0;entryDx=0;entryDy=0;" parent="1" source="V_LoAU3kPVqiyDulKnPD-52" target="V_LoAU3kPVqiyDulKnPD-81" edge="1">
          <mxGeometry relative="1" as="geometry">
            <mxPoint x="430" y="600" as="targetPoint" />
          </mxGeometry>
        </mxCell>
        <mxCell id="K5N2aJaCRLMIvGB8ELb--2" style="edgeStyle=orthogonalEdgeStyle;rounded=0;orthogonalLoop=1;jettySize=auto;html=1;endArrow=oval;endFill=1;" edge="1" parent="1" source="V_LoAU3kPVqiyDulKnPD-52">
          <mxGeometry relative="1" as="geometry">
            <mxPoint x="460" y="1270" as="targetPoint" />
            <Array as="points">
              <mxPoint x="610" y="530" />
              <mxPoint x="610" y="1270" />
            </Array>
          </mxGeometry>
        </mxCell>
        <mxCell id="K5N2aJaCRLMIvGB8ELb--5" value="False" style="edgeLabel;html=1;align=center;verticalAlign=middle;resizable=0;points=[];" vertex="1" connectable="0" parent="K5N2aJaCRLMIvGB8ELb--2">
          <mxGeometry x="-0.963" y="1" relative="1" as="geometry">
            <mxPoint x="-9" y="-9" as="offset" />
          </mxGeometry>
        </mxCell>
        <mxCell id="V_LoAU3kPVqiyDulKnPD-52" value="&lt;div&gt;&lt;b&gt;&lt;br&gt;&lt;/b&gt;&lt;/div&gt;&lt;div&gt;&lt;b&gt;&lt;span style=&quot;color: rgb(51, 153, 255);&quot;&gt;&lt;br&gt;&lt;/span&gt;&lt;/b&gt;&lt;/div&gt;&lt;div&gt;&lt;b&gt;&lt;span style=&quot;color: rgb(51, 153, 255);&quot;&gt;check_requirements&lt;/span&gt;&lt;/b&gt;&lt;/div&gt;&lt;div&gt;= True&lt;/div&gt;&lt;div&gt;?&lt;/div&gt;" style="rhombus;whiteSpace=wrap;html=1;rounded=1;" parent="1" vertex="1">
          <mxGeometry x="401.25" y="480" width="140" height="100" as="geometry" />
        </mxCell>
        <mxCell id="V_LoAU3kPVqiyDulKnPD-59" value="True" style="edgeLabel;html=1;align=center;verticalAlign=middle;resizable=0;points=[];" parent="1" vertex="1" connectable="0">
          <mxGeometry x="462" y="567" as="geometry">
            <mxPoint x="27" y="16" as="offset" />
          </mxGeometry>
        </mxCell>
        <mxCell id="V_LoAU3kPVqiyDulKnPD-64" value="&lt;div&gt;&lt;b&gt;&lt;span style=&quot;color: rgb(51, 153, 255);&quot;&gt;check_requirement&lt;/span&gt;&lt;/b&gt;&lt;span style=&quot;color: rgb(51, 153, 255);&quot;&gt;&lt;b&gt;s&lt;/b&gt;&lt;/span&gt; = False&lt;/div&gt;" style="rounded=0;whiteSpace=wrap;html=1;" parent="1" vertex="1">
          <mxGeometry x="370" y="920" width="180" height="30" as="geometry" />
        </mxCell>
        <mxCell id="V_LoAU3kPVqiyDulKnPD-77" style="edgeStyle=orthogonalEdgeStyle;rounded=0;orthogonalLoop=1;jettySize=auto;html=1;entryX=0.5;entryY=0;entryDx=0;entryDy=0;exitX=0.5;exitY=1;exitDx=0;exitDy=0;" parent="1" source="V_LoAU3kPVqiyDulKnPD-81" target="e2nXjTbByPsuULgPPmAs-12" edge="1">
          <mxGeometry relative="1" as="geometry">
            <mxPoint x="430" y="640" as="sourcePoint" />
            <Array as="points">
              <mxPoint x="471" y="660" />
              <mxPoint x="346" y="660" />
            </Array>
          </mxGeometry>
        </mxCell>
        <mxCell id="V_LoAU3kPVqiyDulKnPD-79" style="edgeStyle=orthogonalEdgeStyle;rounded=0;orthogonalLoop=1;jettySize=auto;html=1;entryX=0.5;entryY=0;entryDx=0;entryDy=0;exitX=0.5;exitY=1;exitDx=0;exitDy=0;" parent="1" source="V_LoAU3kPVqiyDulKnPD-105" target="V_LoAU3kPVqiyDulKnPD-20" edge="1">
          <mxGeometry relative="1" as="geometry" />
        </mxCell>
        <mxCell id="V_LoAU3kPVqiyDulKnPD-78" value="&lt;div&gt;&lt;font style=&quot;font-size: 13px;&quot;&gt;&lt;span style=&quot;color: rgb(0, 0, 0);&quot;&gt;&lt;b&gt;Worker&lt;/b&gt;&lt;/span&gt;&lt;/font&gt;&lt;/div&gt;&lt;div&gt;&lt;font style=&quot;font-size: 13px;&quot;&gt;&lt;span style=&quot;color: rgb(0, 0, 0);&quot;&gt;&lt;b&gt;Result&lt;/b&gt;&lt;/span&gt;&lt;/font&gt;&lt;/div&gt;" style="ellipse;whiteSpace=wrap;html=1;aspect=fixed;fillColor=#FFFFFF;fontColor=#FFFFFF;strokeWidth=2;" parent="1" vertex="1">
          <mxGeometry x="265" y="1170" width="80" height="80" as="geometry" />
        </mxCell>
        <mxCell id="V_LoAU3kPVqiyDulKnPD-81" value="set&lt;b&gt; &lt;span style=&quot;color: rgb(255, 0, 255);&quot;&gt;skip_after_tree&lt;/span&gt;&lt;/b&gt;=True" style="rounded=1;whiteSpace=wrap;html=1;" parent="1" vertex="1">
          <mxGeometry x="392.5" y="600" width="157.5" height="40" as="geometry" />
        </mxCell>
        <mxCell id="V_LoAU3kPVqiyDulKnPD-84" style="edgeStyle=orthogonalEdgeStyle;rounded=0;orthogonalLoop=1;jettySize=auto;html=1;entryX=0.5;entryY=0;entryDx=0;entryDy=0;exitX=0;exitY=0.5;exitDx=0;exitDy=0;" parent="1" source="V_LoAU3kPVqiyDulKnPD-83" target="V_LoAU3kPVqiyDulKnPD-105" edge="1">
          <mxGeometry relative="1" as="geometry">
            <mxPoint x="370" y="1140" as="sourcePoint" />
          </mxGeometry>
        </mxCell>
        <mxCell id="V_LoAU3kPVqiyDulKnPD-88" value="&lt;div&gt;False&lt;/div&gt;" style="edgeLabel;html=1;align=center;verticalAlign=middle;resizable=0;points=[];" parent="V_LoAU3kPVqiyDulKnPD-84" vertex="1" connectable="0">
          <mxGeometry x="-0.6227" y="4" relative="1" as="geometry">
            <mxPoint x="17" y="-14" as="offset" />
          </mxGeometry>
        </mxCell>
        <mxCell id="V_LoAU3kPVqiyDulKnPD-85" style="edgeStyle=orthogonalEdgeStyle;rounded=0;orthogonalLoop=1;jettySize=auto;html=1;entryX=0.5;entryY=0;entryDx=0;entryDy=0;" parent="1" source="V_LoAU3kPVqiyDulKnPD-83" target="e2nXjTbByPsuULgPPmAs-34" edge="1">
          <mxGeometry relative="1" as="geometry">
            <Array as="points">
              <mxPoint x="460" y="1470" />
            </Array>
          </mxGeometry>
        </mxCell>
        <mxCell id="V_LoAU3kPVqiyDulKnPD-86" value="True" style="edgeLabel;html=1;align=center;verticalAlign=middle;resizable=0;points=[];" parent="V_LoAU3kPVqiyDulKnPD-85" vertex="1" connectable="0">
          <mxGeometry x="-0.9348" y="-4" relative="1" as="geometry">
            <mxPoint x="24" y="-10" as="offset" />
          </mxGeometry>
        </mxCell>
        <mxCell id="V_LoAU3kPVqiyDulKnPD-83" value="&lt;div&gt;&lt;b&gt;&lt;span style=&quot;color: rgb(255, 0, 255);&quot;&gt;&lt;br&gt;&lt;/span&gt;&lt;/b&gt;&lt;/div&gt;&lt;div&gt;&lt;b&gt;&lt;span style=&quot;color: rgb(255, 0, 255);&quot;&gt;skip_after_tree&lt;/span&gt;&lt;/b&gt;&lt;span style=&quot;color: rgb(255, 128, 0);&quot;&gt;&lt;b&gt; &lt;br&gt;&lt;/b&gt;&lt;/span&gt;&lt;/div&gt;&lt;div&gt;?&lt;/div&gt;" style="rhombus;whiteSpace=wrap;html=1;rounded=1;" parent="1" vertex="1">
          <mxGeometry x="405.84000000000003" y="1090" width="108.33" height="100" as="geometry" />
        </mxCell>
        <mxCell id="V_LoAU3kPVqiyDulKnPD-91" value="&lt;span style=&quot;color: rgb(153, 0, 153);&quot;&gt;return &lt;/span&gt;&lt;b&gt;Worker Result&lt;/b&gt;" style="rounded=1;whiteSpace=wrap;html=1;fillColor=#d5e8d4;strokeColor=#000000;strokeWidth=2;glass=0;shadow=0;fillStyle=solid;" parent="1" vertex="1">
          <mxGeometry x="190" y="1490" width="140" height="40" as="geometry" />
        </mxCell>
        <mxCell id="V_LoAU3kPVqiyDulKnPD-96" style="edgeStyle=orthogonalEdgeStyle;rounded=0;orthogonalLoop=1;jettySize=auto;html=1;entryX=0.5;entryY=0;entryDx=0;entryDy=0;" parent="1" source="V_LoAU3kPVqiyDulKnPD-95" target="V_LoAU3kPVqiyDulKnPD-97" edge="1">
          <mxGeometry relative="1" as="geometry">
            <mxPoint x="660.0000000000002" y="1490" as="targetPoint" />
          </mxGeometry>
        </mxCell>
        <mxCell id="V_LoAU3kPVqiyDulKnPD-95" value="&lt;div&gt;&lt;font style=&quot;font-size: 20px; color: rgb(0, 153, 153);&quot;&gt;Loads&lt;/font&gt;&lt;b&gt;&lt;br&gt;&lt;/b&gt;&lt;/div&gt;&lt;div&gt;&lt;b&gt;Worker Result&lt;/b&gt;&lt;/div&gt;&lt;div&gt;from &lt;b&gt;&lt;span style=&quot;color: rgb(0, 153, 153);&quot;&gt;DiskObject&lt;span style=&quot;color: rgb(0, 153, 77);&quot;&gt;&lt;/span&gt;&lt;/span&gt;&lt;/b&gt; &lt;br&gt;&lt;/div&gt;" style="rounded=1;whiteSpace=wrap;html=1;fillColor=#d5e8d4;strokeColor=#000000;strokeWidth=2;glass=0;shadow=0;fillStyle=hatch;" parent="1" vertex="1">
          <mxGeometry x="590" y="1390" width="140" height="60" as="geometry" />
        </mxCell>
        <mxCell id="V_LoAU3kPVqiyDulKnPD-97" value="&lt;span style=&quot;color: rgb(153, 0, 153);&quot;&gt;return &lt;/span&gt;&lt;b&gt;Worker Result&lt;/b&gt;" style="rounded=1;whiteSpace=wrap;html=1;fillColor=#d5e8d4;strokeColor=#000000;strokeWidth=2;glass=0;shadow=0;fillStyle=solid;" parent="1" vertex="1">
          <mxGeometry x="590" y="1490" width="140" height="40" as="geometry" />
        </mxCell>
        <mxCell id="V_LoAU3kPVqiyDulKnPD-104" value="&lt;b&gt;&lt;span style=&quot;color: rgb(255, 128, 0);&quot;&gt;Loop&lt;/span&gt;&lt;/b&gt;" style="text;html=1;align=center;verticalAlign=middle;resizable=0;points=[];autosize=1;strokeColor=none;fillColor=none;" parent="1" vertex="1">
          <mxGeometry x="530" y="670" width="50" height="30" as="geometry" />
        </mxCell>
        <mxCell id="2myHmQKuO1r7phrDSf7x-2" value="&lt;font style=&quot;font-size: 17px;&quot;&gt;&lt;b&gt;&lt;span style=&quot;color: rgb(0, 153, 153);&quot;&gt;BaseStep&lt;/span&gt;.&lt;span style=&quot;color: rgb(255, 128, 0);&quot;&gt;generate( ) &lt;/span&gt;Flowchart&lt;/b&gt;&lt;/font&gt;" style="text;html=1;align=center;verticalAlign=middle;resizable=0;points=[];autosize=1;strokeColor=none;fillColor=none;" parent="1" vertex="1">
          <mxGeometry x="326.25" y="-100" width="280" height="30" as="geometry" />
        </mxCell>
        <mxCell id="2myHmQKuO1r7phrDSf7x-4" value="Generate added arguments" style="shape=table;startSize=30;container=1;collapsible=0;childLayout=tableLayout;fixedRows=1;rowLines=0;fontStyle=0;strokeColor=default;fontSize=12;align=left;rounded=1;spacingLeft=10;" parent="1" vertex="1">
          <mxGeometry x="450" y="-40" width="269.99999999999955" height="180" as="geometry" />
        </mxCell>
        <mxCell id="2myHmQKuO1r7phrDSf7x-5" value="" style="shape=tableRow;horizontal=0;startSize=0;swimlaneHead=0;swimlaneBody=0;top=0;left=0;bottom=0;right=0;collapsible=0;dropTarget=0;fillColor=none;points=[[0,0.5],[1,0.5]];portConstraint=eastwest;strokeColor=inherit;fontSize=16;" parent="2myHmQKuO1r7phrDSf7x-4" vertex="1">
          <mxGeometry y="30" width="269.99999999999955" height="30" as="geometry" />
        </mxCell>
        <mxCell id="2myHmQKuO1r7phrDSf7x-6" value="&lt;span style=&quot;color: rgb(51, 153, 255);&quot;&gt;&lt;b&gt;refresh&lt;/b&gt;&lt;/span&gt;" style="shape=partialRectangle;html=1;whiteSpace=wrap;connectable=0;fillColor=none;top=0;left=0;bottom=0;right=0;overflow=hidden;pointerEvents=1;strokeColor=inherit;fontSize=12;align=left;spacingLeft=5;" parent="2myHmQKuO1r7phrDSf7x-5" vertex="1">
          <mxGeometry width="140" height="30" as="geometry">
            <mxRectangle width="140" height="30" as="alternateBounds" />
          </mxGeometry>
        </mxCell>
        <mxCell id="2myHmQKuO1r7phrDSf7x-7" value="&lt;span style=&quot;color: rgb(0, 153, 153);&quot;&gt;bool&lt;/span&gt;" style="shape=partialRectangle;html=1;whiteSpace=wrap;connectable=0;fillColor=none;top=0;left=0;bottom=0;right=0;align=left;spacingLeft=6;overflow=hidden;strokeColor=inherit;fontSize=12;" parent="2myHmQKuO1r7phrDSf7x-5" vertex="1">
          <mxGeometry x="140" width="130" height="30" as="geometry">
            <mxRectangle width="130" height="30" as="alternateBounds" />
          </mxGeometry>
        </mxCell>
        <mxCell id="2myHmQKuO1r7phrDSf7x-8" value="" style="shape=tableRow;horizontal=0;startSize=0;swimlaneHead=0;swimlaneBody=0;top=0;left=0;bottom=0;right=0;collapsible=0;dropTarget=0;fillColor=none;points=[[0,0.5],[1,0.5]];portConstraint=eastwest;strokeColor=inherit;fontSize=16;" parent="2myHmQKuO1r7phrDSf7x-4" vertex="1">
          <mxGeometry y="60" width="269.99999999999955" height="30" as="geometry" />
        </mxCell>
        <mxCell id="2myHmQKuO1r7phrDSf7x-9" value="&lt;b&gt;&lt;span style=&quot;color: rgb(51, 153, 255);&quot;&gt;skip&lt;/span&gt;&lt;/b&gt;" style="shape=partialRectangle;html=1;whiteSpace=wrap;connectable=0;fillColor=none;top=0;left=0;bottom=0;right=0;overflow=hidden;strokeColor=inherit;fontSize=12;align=left;spacingLeft=5;" parent="2myHmQKuO1r7phrDSf7x-8" vertex="1">
          <mxGeometry width="140" height="30" as="geometry">
            <mxRectangle width="140" height="30" as="alternateBounds" />
          </mxGeometry>
        </mxCell>
        <mxCell id="2myHmQKuO1r7phrDSf7x-10" value="&lt;span style=&quot;color: rgb(0, 153, 153);&quot;&gt;bool&lt;/span&gt;" style="shape=partialRectangle;html=1;whiteSpace=wrap;connectable=0;fillColor=none;top=0;left=0;bottom=0;right=0;align=left;spacingLeft=6;overflow=hidden;strokeColor=inherit;fontSize=12;" parent="2myHmQKuO1r7phrDSf7x-8" vertex="1">
          <mxGeometry x="140" width="130" height="30" as="geometry">
            <mxRectangle width="130" height="30" as="alternateBounds" />
          </mxGeometry>
        </mxCell>
        <mxCell id="2myHmQKuO1r7phrDSf7x-11" value="" style="shape=tableRow;horizontal=0;startSize=0;swimlaneHead=0;swimlaneBody=0;top=0;left=0;bottom=0;right=0;collapsible=0;dropTarget=0;fillColor=none;points=[[0,0.5],[1,0.5]];portConstraint=eastwest;strokeColor=inherit;fontSize=16;" parent="2myHmQKuO1r7phrDSf7x-4" vertex="1">
          <mxGeometry y="90" width="269.99999999999955" height="30" as="geometry" />
        </mxCell>
        <mxCell id="2myHmQKuO1r7phrDSf7x-12" value="&lt;b&gt;&lt;span style=&quot;color: rgb(51, 153, 255);&quot;&gt;check_requirements&lt;/span&gt;&lt;/b&gt;" style="shape=partialRectangle;html=1;whiteSpace=wrap;connectable=0;fillColor=none;top=0;left=0;bottom=0;right=0;overflow=hidden;strokeColor=inherit;fontSize=12;align=left;spacingLeft=5;" parent="2myHmQKuO1r7phrDSf7x-11" vertex="1">
          <mxGeometry width="140" height="30" as="geometry">
            <mxRectangle width="140" height="30" as="alternateBounds" />
          </mxGeometry>
        </mxCell>
        <mxCell id="2myHmQKuO1r7phrDSf7x-13" value="&lt;span style=&quot;color: rgb(0, 153, 153);&quot;&gt;bool&lt;/span&gt;" style="shape=partialRectangle;html=1;whiteSpace=wrap;connectable=0;fillColor=none;top=0;left=0;bottom=0;right=0;align=left;spacingLeft=6;overflow=hidden;strokeColor=inherit;fontSize=12;" parent="2myHmQKuO1r7phrDSf7x-11" vertex="1">
          <mxGeometry x="140" width="130" height="30" as="geometry">
            <mxRectangle width="130" height="30" as="alternateBounds" />
          </mxGeometry>
        </mxCell>
        <mxCell id="2myHmQKuO1r7phrDSf7x-14" value="" style="shape=tableRow;horizontal=0;startSize=0;swimlaneHead=0;swimlaneBody=0;top=0;left=0;bottom=0;right=0;collapsible=0;dropTarget=0;fillColor=none;points=[[0,0.5],[1,0.5]];portConstraint=eastwest;strokeColor=inherit;fontSize=16;" parent="2myHmQKuO1r7phrDSf7x-4" vertex="1">
          <mxGeometry y="120" width="269.99999999999955" height="30" as="geometry" />
        </mxCell>
        <mxCell id="2myHmQKuO1r7phrDSf7x-15" value="&lt;b&gt;&lt;span style=&quot;color: rgb(51, 153, 255);&quot;&gt;refresh_requirements&lt;/span&gt;&lt;/b&gt;" style="shape=partialRectangle;html=1;whiteSpace=wrap;connectable=0;fillColor=none;top=0;left=0;bottom=0;right=0;overflow=hidden;strokeColor=inherit;fontSize=12;align=left;spacingLeft=5;" parent="2myHmQKuO1r7phrDSf7x-14" vertex="1">
          <mxGeometry width="140" height="30" as="geometry">
            <mxRectangle width="140" height="30" as="alternateBounds" />
          </mxGeometry>
        </mxCell>
        <mxCell id="2myHmQKuO1r7phrDSf7x-16" value="&lt;div&gt;&lt;span style=&quot;color: rgb(0, 153, 153);&quot;&gt;bool &lt;/span&gt;or &lt;span style=&quot;color: rgb(0, 153, 153);&quot;&gt;str &lt;/span&gt;or &lt;span style=&quot;color: rgb(0, 153, 153);&quot;&gt;List[str]&lt;/span&gt;&lt;/div&gt;" style="shape=partialRectangle;html=1;whiteSpace=wrap;connectable=0;fillColor=none;top=0;left=0;bottom=0;right=0;align=left;spacingLeft=6;overflow=hidden;strokeColor=inherit;fontSize=12;" parent="2myHmQKuO1r7phrDSf7x-14" vertex="1">
          <mxGeometry x="140" width="130" height="30" as="geometry">
            <mxRectangle width="130" height="30" as="alternateBounds" />
          </mxGeometry>
        </mxCell>
        <mxCell id="2myHmQKuO1r7phrDSf7x-17" value="" style="shape=tableRow;horizontal=0;startSize=0;swimlaneHead=0;swimlaneBody=0;top=0;left=0;bottom=0;right=0;collapsible=0;dropTarget=0;fillColor=none;points=[[0,0.5],[1,0.5]];portConstraint=eastwest;strokeColor=inherit;fontSize=16;" parent="2myHmQKuO1r7phrDSf7x-4" vertex="1">
          <mxGeometry y="150" width="269.99999999999955" height="30" as="geometry" />
        </mxCell>
        <mxCell id="2myHmQKuO1r7phrDSf7x-18" value="&lt;b&gt;&lt;span style=&quot;color: rgb(51, 153, 255);&quot;&gt;save_output&lt;/span&gt;&lt;/b&gt;" style="shape=partialRectangle;html=1;whiteSpace=wrap;connectable=0;fillColor=none;top=0;left=0;bottom=0;right=0;overflow=hidden;strokeColor=inherit;fontSize=12;align=left;spacingLeft=5;" parent="2myHmQKuO1r7phrDSf7x-17" vertex="1">
          <mxGeometry width="140" height="30" as="geometry">
            <mxRectangle width="140" height="30" as="alternateBounds" />
          </mxGeometry>
        </mxCell>
        <mxCell id="2myHmQKuO1r7phrDSf7x-19" value="&lt;span style=&quot;color: rgb(0, 153, 153);&quot;&gt;bool&lt;/span&gt;" style="shape=partialRectangle;html=1;whiteSpace=wrap;connectable=0;fillColor=none;top=0;left=0;bottom=0;right=0;align=left;spacingLeft=6;overflow=hidden;strokeColor=inherit;fontSize=12;" parent="2myHmQKuO1r7phrDSf7x-17" vertex="1">
          <mxGeometry x="140" width="130" height="30" as="geometry">
            <mxRectangle width="130" height="30" as="alternateBounds" />
          </mxGeometry>
        </mxCell>
      </root>
    </mxGraphModel>
  </diagram>
</mxfile>
